<svg width="245" height="257" viewBox="0 0 245 257" fill="none" xmlns="http://www.w3.org/2000/svg">
<path d="M209.2 228.596L137.655 199.924L198.259 152.3L209.2 228.596Z" fill="#6636F1"/>
<circle cx="119.367" cy="119.367" r="96" transform="rotate(-16.5483 119.367 119.367)" fill="#6636F1"/>
<path d="M158.837 104.279L150.243 89.7969C149.221 88.098 147.774 86.6764 146.037 85.6631C144.301 84.6497 142.329 84.0772 140.305 83.9982C138.28 83.9192 136.268 84.3363 134.453 85.2111C132.638 86.0859 131.079 87.3902 129.919 89.0039L122.486 76.4834C120.886 73.7983 118.255 71.8384 115.171 71.0327C112.087 70.2271 108.799 70.6413 106.028 72.1847C104.304 73.1737 102.845 74.547 101.775 76.1912C100.362 74.961 98.668 74.0742 96.8332 73.6037C95.3126 73.1881 93.7208 73.0774 92.1548 73.2783C90.5888 73.4792 89.0812 73.9875 87.7238 74.7722C86.3522 75.5338 85.1492 76.5511 84.1837 77.7657C83.2183 78.9803 82.5096 80.3683 82.0983 81.8499C81.687 83.3315 81.5813 84.8774 81.7872 86.3988C81.9931 87.9202 82.5065 89.3871 83.298 90.7151L84.759 93.1357C82.9729 93.2838 81.242 93.811 79.6887 94.6799C76.9431 96.2407 74.9427 98.7907 74.122 101.776C73.3013 104.761 73.7268 107.94 75.3058 110.623L93.3527 141.006C95.7965 145.255 99.0854 148.99 103.028 151.993C106.971 154.997 111.489 157.209 116.32 158.502C121.151 159.794 126.198 160.142 131.168 159.523C136.138 158.905 140.932 157.333 145.271 154.899C149.611 152.466 153.409 149.219 156.445 145.347C159.481 141.475 161.694 137.055 162.956 132.346C164.219 127.636 164.504 122.729 163.797 117.911C163.09 113.092 161.404 108.459 158.837 104.279ZM155.958 130.405C154.926 134.221 153.121 137.799 150.65 140.931C148.178 144.062 145.089 146.684 141.564 148.644C134.456 152.625 126.013 153.705 118.086 151.648C110.16 149.59 103.397 144.562 99.2824 137.667L81.2355 107.284C80.5518 106.133 80.3668 104.765 80.7214 103.481C81.0759 102.198 81.941 101.104 83.1262 100.439C84.3113 99.7753 85.7196 99.5956 87.0412 99.94C88.3627 100.284 89.4893 101.125 90.173 102.276L99.6262 118.177C99.8519 118.558 100.153 118.892 100.511 119.16C100.87 119.428 101.279 119.625 101.716 119.739C102.153 119.853 102.609 119.883 103.058 119.826C103.506 119.769 103.939 119.627 104.331 119.408C104.723 119.189 105.067 118.897 105.343 118.548C105.619 118.2 105.822 117.802 105.939 117.378C106.057 116.954 106.088 116.511 106.029 116.075C105.971 115.639 105.825 115.219 105.599 114.838L96.1457 98.9369L89.2707 87.3763C88.5874 86.2267 88.402 84.8607 88.7551 83.5784C88.9256 82.9399 89.2265 82.3412 89.6399 81.8179C90.0532 81.2945 90.5706 80.8571 91.1613 80.5317C92.3449 79.868 93.7512 79.6879 95.0715 80.0309C96.3849 80.3943 97.5066 81.23 98.2082 82.368L101.603 88.1692H101.646L112.818 106.95C113.108 107.465 113.537 107.892 114.06 108.187C114.583 108.481 115.178 108.631 115.782 108.619C116.389 108.631 116.986 108.472 117.501 108.16C118.285 107.716 118.857 106.988 119.09 106.135C119.323 105.283 119.2 104.376 118.747 103.611L107.575 84.8304C106.892 83.6793 106.707 82.3114 107.061 81.0278C107.416 79.7442 108.281 78.65 109.466 77.9858C110.651 77.3217 112.059 77.1421 113.381 77.4865C114.703 77.8308 115.829 78.671 116.513 79.8222L129.403 101.483L132.111 106.074C128.366 109.1 125.843 113.315 124.986 117.973C124.129 122.631 124.993 127.433 127.427 131.532C127.918 132.224 128.66 132.711 129.504 132.895C130.348 133.079 131.233 132.947 131.981 132.526C132.73 132.104 133.287 131.424 133.542 130.621C133.797 129.818 133.731 128.951 133.357 128.193C131.535 125.127 131.041 121.483 131.983 118.063C132.926 114.643 135.228 111.727 138.384 109.955C138.781 109.735 139.13 109.441 139.41 109.09C139.69 108.739 139.896 108.338 140.017 107.91C140.227 107.063 140.104 106.17 139.673 105.406L135.376 98.1439C134.879 97.2868 134.652 96.3063 134.725 95.3248C134.798 94.3434 135.166 93.4045 135.785 92.6254C136.404 91.8463 137.245 91.2615 138.204 90.944C139.163 90.6265 140.197 90.5905 141.177 90.8403C141.823 91.0061 142.429 91.2942 142.96 91.6881C143.491 92.082 143.936 92.574 144.271 93.1357L152.864 107.618C154.919 111.024 156.251 114.794 156.782 118.708C157.314 122.621 157.033 126.599 155.958 130.405ZM101.903 162.959C101.579 163.395 101.153 163.751 100.66 163.998C100.168 164.244 99.6219 164.375 99.0676 164.378C98.3649 164.369 97.6793 164.167 97.091 163.793C90.8413 159.599 85.6427 154.093 81.8801 147.684C81.611 147.305 81.4256 146.876 81.3355 146.423C81.2454 145.971 81.2525 145.506 81.3564 145.057C81.4603 144.608 81.6587 144.184 81.9392 143.813C82.2197 143.442 82.5762 143.131 82.9863 142.9C83.3964 142.669 83.8513 142.523 84.3223 142.471C84.7933 142.419 85.2702 142.462 85.7232 142.598C86.1762 142.734 86.5954 142.959 86.9545 143.26C87.3136 143.56 87.6047 143.93 87.8097 144.345C91.0933 149.894 95.6156 154.657 101.044 158.284C101.791 158.797 102.3 159.576 102.461 160.45C102.622 161.325 102.422 162.226 101.903 162.959ZM136.407 73.8123C136.407 72.9268 136.77 72.0776 137.414 71.4514C138.059 70.8253 138.933 70.4735 139.845 70.4735C144.372 70.4791 148.817 71.6384 152.738 73.8355C156.659 76.0326 159.918 79.1907 162.189 82.9941C162.417 83.3736 162.565 83.7938 162.624 84.2297C162.682 84.6656 162.651 85.1085 162.531 85.5324C162.41 85.9562 162.204 86.3525 161.924 86.6978C161.644 87.0431 161.296 87.3306 160.9 87.5432C160.387 87.859 159.788 88.0189 159.181 88.0023C158.579 88.0002 157.989 87.845 157.469 87.552C156.949 87.2591 156.517 86.8387 156.216 86.3329C154.557 83.5416 152.17 81.2236 149.297 79.6119C146.423 78.0002 143.163 77.1515 139.845 77.1511C138.933 77.1511 138.059 76.7994 137.414 76.1732C136.77 75.5471 136.407 74.6978 136.407 73.8123Z" fill="white"/>
</svg>
